<?xml version="1.0" encoding="utf-8"?>
<!-- Generator: Adobe Illustrator 26.3.1, SVG Export Plug-In . SVG Version: 6.00 Build 0)  -->
<svg version="1.1" id="Layer_1" xmlns="http://www.w3.org/2000/svg" xmlns:xlink="http://www.w3.org/1999/xlink" x="0px" y="0px"
	 viewBox="0 0 374 374" style="enable-background:new 0 0 374 374;" xml:space="preserve">
<g id="Group_1" transform="translate(-773 -353)">
	<path d="M960.2,575.9c-11.4-0.2-20.9,9-20.9,20.4c-0.1,11.3,8.9,20.5,20.2,20.8c11.5,0.3,20.8-8.9,21-20.5
		C980.7,585.5,971.4,576.1,960.2,575.9z M960.2,575.9c-11.4-0.2-20.9,9-20.9,20.4c-0.1,11.3,8.9,20.5,20.2,20.8
		c11.5,0.3,20.8-8.9,21-20.5C980.7,585.5,971.4,576.1,960.2,575.9z M959.9,545.9c-20.3,0-37.1,16.8-36.4,37.7
		c0.6,19.3,16.5,35.2,36.3,35.1c19.9,0.2,36.6-16.2,36.5-36.6C996.2,561.9,979.9,546,959.9,545.9z M959.6,618
		c-15.8-0.2-28.6-13.3-28.3-29c0.3-15.7,13.3-28.4,28.8-28.2c15.8,0,29,13.1,28.4,29.7C988,605.5,975.5,618.1,959.6,618z
		 M960.2,575.9c-11.4-0.2-20.9,9-20.9,20.4c-0.1,11.3,8.9,20.5,20.2,20.8c11.5,0.3,20.8-8.9,21-20.5
		C980.7,585.5,971.4,576.1,960.2,575.9z M960.2,575.9c-11.4-0.2-20.9,9-20.9,20.4c-0.1,11.3,8.9,20.5,20.2,20.8
		c11.5,0.3,20.8-8.9,21-20.5C980.7,585.5,971.4,576.1,960.2,575.9z M960.2,575.9c-11.4-0.2-20.9,9-20.9,20.4
		c-0.1,11.3,8.9,20.5,20.2,20.8c11.5,0.3,20.8-8.9,21-20.5C980.7,585.5,971.4,576.1,960.2,575.9z M960.2,575.9
		c-11.4-0.2-20.9,9-20.9,20.4c-0.1,11.3,8.9,20.5,20.2,20.8c11.5,0.3,20.8-8.9,21-20.5C980.7,585.5,971.4,576.1,960.2,575.9z
		 M960.2,575.9c-11.4-0.2-20.9,9-20.9,20.4c-0.1,11.3,8.9,20.5,20.2,20.8c11.5,0.3,20.8-8.9,21-20.5
		C980.7,585.5,971.4,576.1,960.2,575.9z M959.9,545.9c-20.3,0-37.1,16.8-36.4,37.7c0.6,19.3,16.5,35.2,36.3,35.1
		c19.9,0.2,36.6-16.2,36.5-36.6C996.2,561.9,979.9,546,959.9,545.9z M959.6,618c-15.8-0.2-28.6-13.3-28.3-29
		c0.3-15.7,13.3-28.4,28.8-28.2c15.8,0,29,13.1,28.4,29.7C988,605.5,975.5,618.1,959.6,618z M960.2,575.9
		c-11.4-0.2-20.9,9-20.9,20.4c-0.1,11.3,8.9,20.5,20.2,20.8c11.5,0.3,20.8-8.9,21-20.5C980.7,585.5,971.4,576.1,960.2,575.9z
		 M960.2,575.9c-11.4-0.2-20.9,9-20.9,20.4c-0.1,11.3,8.9,20.5,20.2,20.8c11.5,0.3,20.8-8.9,21-20.5
		C980.7,585.5,971.4,576.1,960.2,575.9z M960.2,575.9c-11.4-0.2-20.9,9-20.9,20.4c-0.1,11.3,8.9,20.5,20.2,20.8
		c11.5,0.3,20.8-8.9,21-20.5C980.7,585.5,971.4,576.1,960.2,575.9z M960.2,575.9c-11.4-0.2-20.9,9-20.9,20.4
		c-0.1,11.3,8.9,20.5,20.2,20.8c11.5,0.3,20.8-8.9,21-20.5C980.7,585.5,971.4,576.1,960.2,575.9z M960.2,575.9
		c-11.4-0.2-20.9,9-20.9,20.4c-0.1,11.3,8.9,20.5,20.2,20.8c11.5,0.3,20.8-8.9,21-20.5C980.7,585.5,971.4,576.1,960.2,575.9z
		 M959.9,545.9c-20.3,0-37.1,16.8-36.4,37.7c0.6,19.3,16.5,35.2,36.3,35.1c19.9,0.2,36.6-16.2,36.5-36.6
		C996.2,561.9,979.9,546,959.9,545.9z M959.6,618c-15.8-0.2-28.6-13.3-28.3-29c0.3-15.7,13.3-28.4,28.8-28.2
		c15.8,0,29,13.1,28.4,29.7C988,605.5,975.5,618.1,959.6,618z M960.2,575.9c-11.4-0.2-20.9,9-20.9,20.4
		c-0.1,11.3,8.9,20.5,20.2,20.8c11.5,0.3,20.8-8.9,21-20.5C980.7,585.5,971.4,576.1,960.2,575.9z M959.9,545.9
		c-20.3,0-37.1,16.8-36.4,37.7c0.6,19.3,16.5,35.2,36.3,35.1c19.9,0.2,36.6-16.2,36.5-36.6C996.2,561.9,979.9,546,959.9,545.9z
		 M959.6,618c-15.8-0.2-28.6-13.3-28.3-29c0.3-15.7,13.3-28.4,28.8-28.2c15.8,0,29,13.1,28.4,29.7C988,605.5,975.5,618.1,959.6,618z
		 M960.2,575.9c-11.4-0.2-20.9,9-20.9,20.4c-0.1,11.3,8.9,20.5,20.2,20.8c11.5,0.3,20.8-8.9,21-20.5
		C980.7,585.5,971.4,576.1,960.2,575.9z M1048,353H872c-54.7,0-99,44.3-99,99v176c0,54.7,44.3,99,99,99h176c54.7,0,99-44.3,99-99
		V452C1147,397.3,1102.7,353,1048,353z M960,463.8c4.2,0,7.4,3.2,7.3,7.2c-0.1,4.5-3.2,7.7-7.4,7.7c-4.1,0-7.3-3.7-7.3-8.3
		C952.7,466.7,956,463.8,960,463.8z M960.4,486.5c5.5,0.3,10.4,4.5,10.2,11.2c-0.1,5.5-5.1,10.2-10.9,10.2
		c-5.8,0-10.5-4.9-10.5-10.7C948.9,491.1,954.9,486.2,960.4,486.5z M992.7,541.3c6.3,6.6,10.3,14.6,11.9,23.7
		c1.9,10.9,0.3,21.3-4.9,31c-4.5,8.2-10.9,14.6-19.3,18.9c-11.8,6-24.1,6.7-36.5,2.1c-9.3-3.5-16.6-9.5-22-17.8
		c-4.9-7.6-7.4-15.9-7.6-25c-0.1-8.6,2-16.7,6.3-24.1c4.1-7.2,9.8-12.8,16.9-17c7-4,14.6-6,24.2-6C973,527.3,983.9,532,992.7,541.3z
		 M935.1,520c-2.8,2.5-5.8,4.9-8.8,7.2c-4,3.1-7.3,6.8-10.1,11c-4.1,6.1-6.8,12.7-8.1,19.9c-1.4,7.8-1.2,15.5,0.9,23.2
		c3.1,11.4,9.3,20.8,18.6,28.1c7,5.4,14.8,9,23.6,10.4c9.4,1.5,18.5,0.7,27.4-2.7c11.6-4.4,20.5-12,26.9-22.6
		c5.7-9.6,8.1-20.1,7.2-31.2c-0.8-9.9-4.3-18.9-10.2-27c-3.5-4.7-7.9-8.3-12.4-11.9c-3.1-2.4-6-5-8.7-7.8c-4-4.1-5-9.2-3.5-14.7
		c0.5-1.7,1.3-3.4,2.1-5c0.4-0.8,1-1.4,1.7-2c1.4-1.2,2-1.2,3.3,0.1c3.3,2.9,6.5,5.9,10,8.5c3.8,2.9,7.6,5.9,10.8,9.4
		c7.7,8.3,12.8,18,15.7,28.9c1.4,5.6,2,11.4,2,17.2c-0.1,8.1-1.7,16-4.9,23.5c-4.6,10.9-11.6,19.9-21.1,26.8
		c-9.2,6.7-19.5,10.7-30.8,11.9c-9.3,1-18.2,0-27-3c-10.3-3.5-19.1-9.3-26.4-17.4c-6.2-6.8-10.8-14.7-13.6-23.5
		c-2.9-8.9-3.6-18-2.4-27.3c0.9-7.9,3.3-15.3,6.9-22.3c4-7.9,9.5-14.8,16.4-20.5c3.5-2.9,7.1-5.7,10.6-8.6c1.1-0.9,2.1-2,3.2-2.9
		c1.4-1.3,2.1-1.3,3.5,0c2.7,2.4,3.7,5.6,4.2,9.1C942.7,511.2,939.6,515.9,935.1,520z M1042.9,543.8c-0.1,0.3-0.2,0.7-0.2,1
		c-0.4,7.5-1.8,14.9-4.2,22.1c-3.3,9.7-8.2,18.5-14.7,26.4c-7.8,9.4-17.2,16.8-28.3,22c-6.4,3-13,5.3-19.9,6.5c-2,0.4-4,0.7-6,1.1
		h-19.1c-2-0.3-4-0.6-5.9-1c-11.1-2.2-21.3-6.3-30.7-12.6c-8-5.4-15-12.1-20.7-19.9c-6.2-8.5-10.8-17.8-13.3-28.1
		c-1-4.2-1.5-8.5-2.3-12.7c-0.2-1-0.3-2.1-0.4-3.1v-9.8c0.1-0.3,0.2-0.6,0.2-1c0.1-4.7,0.9-9.4,2-13.9c1.8-7.9,4.8-15.3,8.7-22.4
		c2.9-5.1,6.2-10,10.1-14.4c4.9-5.7,10.5-10.6,16.8-14.8c3.5-2.3,7-4.5,10.4-6.9c2.3-1.6,4.6-3.3,6.8-5h1.4c5.1,5.6,6.2,13.6,2.5,20
		c-1.1,1.9-2.6,3.7-4.3,5c-4.1,3.1-8.4,5.9-12.6,8.8c-3.9,2.7-7.6,5.8-10.9,9.3c-6.8,7-12,15-15.5,24.2c-3.8,9.9-5.4,20.1-4.7,30.7
		c0.8,12.3,4.5,23.6,11.2,34c6.3,9.9,14.6,17.8,24.8,23.7c8.4,4.9,17.4,7.9,27.1,9c9.3,1.1,18.5,0.5,27.5-1.9
		c10.2-2.8,19.4-7.6,27.5-14.4c8.1-6.8,14.4-15.1,18.9-24.7c3.6-7.7,5.7-15.8,6.5-24.3c0.8-9-0.1-17.8-2.7-26.5
		c-3-10-7.9-19-14.8-26.9c-5.1-5.8-11-10.6-17.7-14.5c-4.4-2.6-8.8-5.5-12.1-9.5c-3.2-3.7-3.9-8.1-3.3-12.7c0.3-2.3,0.7-4.6,2-6.6
		c0.5-0.8,1.2-1.6,1.8-2.5h2.7c1.9,1.5,3.7,3,5.7,4.3c3.7,2.5,7.6,4.9,11.3,7.4c6.3,4.1,11.9,9,16.9,14.7c5.7,6.6,10.5,13.9,14,22
		c3.5,7.9,5.8,16.2,6.8,24.8c0.2,2.1,0.4,4.2,0.6,6.3V543.8z M923.5,583.6c0.6,19.3,16.5,35.2,36.3,35.1
		c19.9,0.2,36.6-16.2,36.5-36.6c-0.1-20.3-16.4-36.2-36.4-36.2C939.6,545.9,922.8,562.7,923.5,583.6z M988.5,590.5
		c-0.5,15-13,27.7-28.9,27.5c-15.8-0.2-28.6-13.3-28.3-29c0.3-15.7,13.3-28.4,28.8-28.2C975.9,560.8,989.1,573.9,988.5,590.5z
		 M959.5,617c11.5,0.3,20.8-8.9,21-20.5c0.2-11-9.1-20.4-20.2-20.6c-11.4-0.2-20.9,9-20.9,20.4C939.2,607.6,948.2,616.8,959.5,617z
		 M960.2,575.9c-11.4-0.2-20.9,9-20.9,20.4c-0.1,11.3,8.9,20.5,20.2,20.8c11.5,0.3,20.8-8.9,21-20.5
		C980.7,585.5,971.4,576.1,960.2,575.9z M960.2,575.9c-11.4-0.2-20.9,9-20.9,20.4c-0.1,11.3,8.9,20.5,20.2,20.8
		c11.5,0.3,20.8-8.9,21-20.5C980.7,585.5,971.4,576.1,960.2,575.9z M959.9,545.9c-20.3,0-37.1,16.8-36.4,37.7
		c0.6,19.3,16.5,35.2,36.3,35.1c19.9,0.2,36.6-16.2,36.5-36.6C996.2,561.9,979.9,546,959.9,545.9z M959.6,618
		c-15.8-0.2-28.6-13.3-28.3-29c0.3-15.7,13.3-28.4,28.8-28.2c15.8,0,29,13.1,28.4,29.7C988,605.5,975.5,618.1,959.6,618z
		 M960.2,575.9c-11.4-0.2-20.9,9-20.9,20.4c-0.1,11.3,8.9,20.5,20.2,20.8c11.5,0.3,20.8-8.9,21-20.5
		C980.7,585.5,971.4,576.1,960.2,575.9z M960.2,575.9c-11.4-0.2-20.9,9-20.9,20.4c-0.1,11.3,8.9,20.5,20.2,20.8
		c11.5,0.3,20.8-8.9,21-20.5C980.7,585.5,971.4,576.1,960.2,575.9z M960.2,575.9c-11.4-0.2-20.9,9-20.9,20.4
		c-0.1,11.3,8.9,20.5,20.2,20.8c11.5,0.3,20.8-8.9,21-20.5C980.7,585.5,971.4,576.1,960.2,575.9z M959.9,545.9
		c-20.3,0-37.1,16.8-36.4,37.7c0.6,19.3,16.5,35.2,36.3,35.1c19.9,0.2,36.6-16.2,36.5-36.6C996.2,561.9,979.9,546,959.9,545.9z
		 M959.6,618c-15.8-0.2-28.6-13.3-28.3-29c0.3-15.7,13.3-28.4,28.8-28.2c15.8,0,29,13.1,28.4,29.7C988,605.5,975.5,618.1,959.6,618z
		 M960.2,575.9c-11.4-0.2-20.9,9-20.9,20.4c-0.1,11.3,8.9,20.5,20.2,20.8c11.5,0.3,20.8-8.9,21-20.5
		C980.7,585.5,971.4,576.1,960.2,575.9z M960.2,575.9c-11.4-0.2-20.9,9-20.9,20.4c-0.1,11.3,8.9,20.5,20.2,20.8
		c11.5,0.3,20.8-8.9,21-20.5C980.7,585.5,971.4,576.1,960.2,575.9z M960.2,575.9c-11.4-0.2-20.9,9-20.9,20.4
		c-0.1,11.3,8.9,20.5,20.2,20.8c11.5,0.3,20.8-8.9,21-20.5C980.7,585.5,971.4,576.1,960.2,575.9z"/>
</g>
</svg>
